<svg width="18" height="18" viewBox="0 0 18 18" fill="none" xmlns="http://www.w3.org/2000/svg">
<path d="M3.81198 17.0297H0.281299V5.65982H3.81198V17.0297ZM2.04474 4.10888C0.915743 4.10888 0 3.17374 0 2.04474C8.08088e-09 1.50244 0.215427 0.982356 0.598891 0.598892C0.982354 0.215428 1.50244 0 2.04474 0C2.58704 0 3.10713 0.215428 3.49059 0.598892C3.87405 0.982356 4.08948 1.50244 4.08948 2.04474C4.08948 3.17374 3.17336 4.10888 2.04474 4.10888ZM17.0262 17.0297H13.5031V11.4949C13.5031 10.1758 13.4765 8.48423 11.6675 8.48423C9.83178 8.48423 9.55049 9.91733 9.55049 11.3999V17.0297H6.0236V5.65982H9.40984V7.21077H9.45925C9.93062 6.31746 11.082 5.37472 12.7999 5.37472C16.3731 5.37472 17.03 7.72776 17.03 10.784V17.0297H17.0262Z" fill="#131049"/>
</svg>
