<svg width="18" height="18" viewBox="0 0 18 18" fill="none" xmlns="http://www.w3.org/2000/svg">
<path d="M14.4793 2.47467C12.8865 0.878109 10.7654 0 8.5112 0C3.85836 0 0.0722254 3.78613 0.0722254 8.43897C0.0722254 9.9253 0.459962 11.3774 1.19742 12.6585L0 17.03L4.47418 15.8554C5.70581 16.5282 7.0933 16.8817 8.5074 16.8817H8.5112C13.1602 16.8817 17.03 13.0956 17.03 8.44278C17.03 6.18858 16.0721 4.07123 14.4793 2.47467ZM8.5112 15.46C7.24915 15.46 6.01372 15.1217 4.93794 14.4831L4.68325 14.331L2.02992 15.0267L2.73696 12.438L2.56971 12.1719C1.86646 11.0543 1.49773 9.76564 1.49773 8.43897C1.49773 4.57301 4.64524 1.4255 8.515 1.4255C10.3891 1.4255 12.1491 2.15536 13.4719 3.48203C14.7948 4.80869 15.6083 6.56871 15.6045 8.44278C15.6045 12.3125 12.3772 15.46 8.5112 15.46ZM12.3582 10.2066C12.1491 10.1002 11.1113 9.59078 10.9174 9.52236C10.7236 9.45013 10.5829 9.41592 10.4423 9.62879C10.3016 9.84167 9.89869 10.313 9.77324 10.4575C9.6516 10.5981 9.52616 10.6171 9.31708 10.5107C8.07785 9.89109 7.26436 9.40451 6.44707 8.00182C6.2304 7.62929 6.66375 7.6559 7.06669 6.85001C7.13511 6.70936 7.1009 6.58772 7.04768 6.48128C6.99446 6.37485 6.57252 5.33708 6.39765 4.91513C6.22659 4.50459 6.05173 4.56161 5.92249 4.554C5.80084 4.5464 5.66019 4.5464 5.51954 4.5464C5.3789 4.5464 5.15081 4.59962 4.95695 4.80869C4.76308 5.02157 4.21949 5.53095 4.21949 6.56871C4.21949 7.60648 4.97595 8.61003 5.07859 8.75068C5.18503 8.89133 6.56491 11.0201 8.68226 11.9362C10.0203 12.514 10.5449 12.5634 11.214 12.4646C11.6207 12.4038 12.4608 11.9552 12.6357 11.461C12.8105 10.9669 12.8105 10.5449 12.7573 10.4575C12.7079 10.3625 12.5672 10.3092 12.3582 10.2066Z" fill="#131049"/>
</svg>
